<svg width="160" height="30" viewBox="0 0 160 30" fill="none" xmlns="http://www.w3.org/2000/svg">
<g clip-path="url(#clip0_69_1948)">
<path fill-rule="evenodd" clip-rule="evenodd" d="M63.0681 14.213C61.8041 14.213 60.7744 15.2101 60.7744 16.4416C60.7744 17.6731 61.8041 18.6763 63.0681 18.6763C64.3321 18.6763 65.3618 17.6791 65.3618 16.4416C65.3618 15.2041 64.3383 14.213 63.0681 14.213ZM156.34 12.573C157.844 12.573 158.942 13.39 159.663 14.213V10.2542C158.485 9.47326 157.061 9.16089 155.822 9.16089C152.024 9.16089 148.719 11.8101 148.719 16.3695C148.719 20.929 151.721 23.5842 155.877 23.5842C157.08 23.5842 158.399 23.41 159.657 22.569V18.6883C158.935 19.4092 157.795 20.1721 156.333 20.1721C154.095 20.1721 152.751 18.5562 152.751 16.4897C152.751 14.249 154.169 12.573 156.333 12.573H156.34ZM149.15 9.55136L143.829 16.1593L149.292 23.1937H144.39L140.333 17.3247V23.1937H136.418V9.55136H140.333V15.2822L144.557 9.55136H149.156H149.15ZM124.832 17.7392V9.55136H121.052V23.1937H124.894L130.313 15.0059V23.1937H134.093V9.55136H130.252L124.832 17.7392ZM113.474 15.6907H112.358V12.555H113.474C115.158 12.555 115.392 13.432 115.392 14.1108C115.392 14.6935 115.213 15.6907 113.474 15.6907ZM114.331 9.55136H108.431V23.1937H112.352V18.6883H114.331C118.296 18.6883 119.431 16.0031 119.431 14.1108C119.431 12.2186 118.308 9.55136 114.331 9.55136ZM96.7524 12.8253H99.8292V23.1937H103.751V12.8253H106.827V9.55136H96.7463V12.8253H96.7524ZM85.8881 17.7392V9.55136H82.1084V23.1937H85.9498L91.3696 15.0059V23.1937H95.1493V9.55136H91.3079L85.8881 17.7392ZM74.2099 20.4665H72.5328V17.601H74.2099C75.4492 17.601 76.1707 17.9494 76.1707 19.0247C76.1707 20.1 75.4307 20.4665 74.2099 20.4665ZM74.5922 14.8737H72.5328V12.8253H78.9515V9.55136H68.6113V23.1937H74.5922C75.6096 23.1937 80.0922 23.2298 80.0922 18.9647C80.0922 14.6995 75.6527 14.8737 74.5922 14.8737ZM46.6668 16.3755C46.6668 20.7428 49.6696 23.5902 53.8254 23.5902C55.0278 23.5902 56.3473 23.416 57.6051 22.575V18.6943C56.8837 19.4152 55.743 20.1781 54.2817 20.1781C52.0435 20.1781 50.6993 18.5622 50.6993 16.4957C50.6993 14.255 52.1175 12.579 54.2817 12.579C55.78 12.579 56.8837 13.396 57.6051 14.219V10.2602C56.4213 9.47927 55.0031 9.1669 53.7638 9.1669C49.9656 9.1669 46.6607 11.8161 46.6607 16.3755H46.6668ZM38.46 12.6931H40.5996V23.1997H44.219V9.55136H38.4539V12.6871L38.46 12.6931Z" fill="#231F20"/>
<path fill-rule="evenodd" clip-rule="evenodd" d="M16.0593 0C14.9125 0 13.7964 0.126151 12.7236 0.360433V15.012C12.7236 16.8082 14.2281 18.2739 16.0717 18.2739C17.9153 18.2739 19.4136 16.8082 19.4136 15.018C19.4136 13.2279 18.0324 11.8763 16.2936 11.7681V9.16099C19.5061 9.27513 22.0896 11.8642 22.0896 15.024C22.0896 18.1838 19.3828 20.8931 16.0717 20.8931C12.7606 20.8931 10.0476 18.2559 10.0476 15.024V1.18943C9.6653 1.34561 9.29534 1.51982 8.93155 1.70605V15.012C8.93155 18.8386 12.1378 21.9624 16.0717 21.9624C20.0055 21.9624 23.2056 18.8386 23.2056 15.012C23.2056 11.1854 20.1227 8.17581 16.2936 8.06167V5.45455C21.5963 5.56868 25.8816 9.82179 25.8816 15.012C25.8816 20.2022 21.473 24.5695 16.0717 24.5695C10.6703 24.5695 6.25556 20.2743 6.25556 15.012V3.43612C2.83965 6.18743 0.663086 10.3444 0.663086 15C0.663086 23.2839 7.55656 30 16.0593 30C24.5621 30 31.4556 23.2839 31.4556 15C31.4556 6.71606 24.5621 0 16.0593 0Z" fill="#D91935"/>
</g>
<defs>
<clipPath id="clip0_69_1948">
<rect width="159" height="30" fill="white" transform="translate(0.663086)"/>
</clipPath>
</defs>
</svg>
