<svg width="89" height="88" viewBox="0 0 89 88" fill="none" xmlns="http://www.w3.org/2000/svg">
<path d="M26.6211 52C26.6211 50.8954 27.5165 50 28.6211 50H72.6211C73.7257 50 74.6211 50.8954 74.6211 52V85C74.6211 86.1046 73.7257 87 72.6211 87H28.6211C27.5165 87 26.6211 86.1046 26.6211 85L26.6211 52Z" fill="#3CB868"/>
<g clip-path="url(#clip0_912_923)">
<path d="M76.403 21.4799H71.3534V13.1768C71.3534 8.66501 67.6925 5 63.1858 5H27.0059C22.4992 5 18.8383 8.66501 18.8383 13.1768V21.4926H13.7887C9.28201 21.4926 5.62109 25.1576 5.62109 29.6693V59.3307C5.62109 63.8424 9.28201 67.5074 13.7887 67.5074H18.8383V75.8232C18.8383 80.335 22.4992 84 27.0059 84H63.2363C67.743 84 71.4039 80.335 71.4039 75.8232V67.5074H76.4535C80.9602 67.5074 84.6211 63.8424 84.6211 59.3307V29.6567C84.6211 25.1449 80.9602 21.4799 76.4535 21.4799H76.403ZM21.9942 13.1641C21.9942 10.3711 24.2539 8.10894 27.0438 8.10894H63.2742C66.064 8.10894 68.3237 10.3711 68.3237 13.1641V21.4799H21.9942V13.1641ZM68.248 75.8106C68.248 78.6036 65.9883 80.8658 63.1984 80.8658H27.0059C24.216 80.8658 21.9563 78.6036 21.9563 75.8106V47.7164H68.248V75.8106ZM81.4146 59.3812C81.4146 62.1742 79.155 64.4364 76.3651 64.4364H71.3156V47.7164H76.3651C77.2361 47.7164 77.9431 47.0086 77.9431 46.1366C77.9431 45.2646 77.2361 44.5569 76.3651 44.5569H13.8392C12.9682 44.5569 12.2612 45.2646 12.2612 46.1366C12.2612 47.0086 12.9682 47.7164 13.8392 47.7164H18.8888V64.3479H13.8392C11.0493 64.3479 8.78968 62.0858 8.78968 59.2928V29.6567C8.78968 26.8637 11.0493 24.6015 13.8392 24.6015H76.403C79.1928 24.6015 81.4525 26.8637 81.4525 29.6567L81.4146 59.3812Z" fill="#3F4547"/>
<path d="M69.8259 31.3755C67.1371 31.3755 64.9531 33.5618 64.9531 36.2537C64.9531 38.9456 67.1371 41.132 69.8259 41.132C72.5148 41.132 74.6987 38.9456 74.6987 36.2537C74.6987 33.5618 72.5148 31.3755 69.8259 31.3755ZM69.8259 37.9725C68.8791 37.9725 68.1091 37.2016 68.1091 36.2537C68.1091 35.3059 68.8791 34.535 69.8259 34.535C70.7727 34.535 71.5428 35.3059 71.5428 36.2537C71.5428 37.2016 70.7727 37.9725 69.8259 37.9725Z" fill="#3F4547"/>
<path d="M20.4161 28.0643H13.8391C12.9807 28.0896 12.2864 28.7973 12.299 29.6567V36.2537C12.299 37.1257 13.0059 37.8335 13.877 37.8335C14.748 37.8335 15.455 37.1257 15.455 36.2537V31.1985H20.5045C21.3755 31.1985 22.0825 30.4908 22.0825 29.6188C22.0825 28.7468 21.3755 28.039 20.5045 28.039L20.4161 28.0643Z" fill="#3F4547"/>
</g>
<defs>
<clipPath id="clip0_912_923">
<rect width="79" height="79" fill="white" transform="translate(5.62109 5)"/>
</clipPath>
</defs>
</svg>
