<svg width="89" height="88" viewBox="0 0 89 88" fill="none" xmlns="http://www.w3.org/2000/svg">
<g clip-path="url(#clip0_912_932)">
<path d="M47.9699 50.5675C35.6302 43.6826 31.2083 28.098 38.0932 15.7583C44.9781 3.41867 60.5627 -1.00328 72.9023 5.88162C85.242 12.7665 89.6639 28.3511 82.779 40.6908C75.8941 53.0304 60.3095 57.4524 47.9699 50.5675Z" fill="#3CB868"/>
<g clip-path="url(#clip1_912_932)">
<path d="M71.6318 62.6367C71.6318 62.6367 71.5897 62.5691 71.5729 62.5353C71.5308 62.4509 71.4719 62.3833 71.4214 62.3072C71.3961 62.2734 71.3625 62.2397 71.3372 62.2059C71.2699 62.1298 71.1941 62.0622 71.11 62.0031C71.0847 61.9862 71.0679 61.9693 71.0427 61.9524C70.9332 61.8848 70.8238 61.8257 70.6976 61.7835C70.6892 61.7835 70.6723 61.775 70.6639 61.7666L70.4619 61.699C76.9508 55.7345 80.6286 47.4384 80.6286 38.4833C80.6202 21.0969 66.5316 6.95464 49.2112 6.95464C44.1615 6.95464 39.2381 8.17963 34.8028 10.486C34.7102 10.1734 34.5335 9.88616 34.281 9.66651C32.4042 8.0867 30.2413 7.00533 27.8595 6.4393C27.8427 6.4393 27.8342 6.4393 27.8174 6.4393H27.7922C22.6078 5.19741 17.1794 6.65895 13.2659 10.3255C12.2139 11.3139 11.305 12.4544 10.5475 13.7132C10.4634 13.8568 10.396 14.0089 10.3624 14.161C9.38609 17.9373 8.82221 21.7812 8.67072 25.566C8.1405 37.6554 11.5575 49.3055 18.5513 59.2405C25.9743 69.7839 36.9068 77.345 49.329 80.5385C52.1316 81.2481 54.951 81.7465 57.7031 82C57.7536 82 57.8041 82 57.8546 82C57.9219 82 57.9808 82 58.0482 81.9915C59.925 81.7803 61.7512 81.2228 63.4681 80.3357C67.4321 78.2743 70.2936 74.6839 71.4719 70.4513C71.5055 70.3837 71.556 70.3161 71.5813 70.2401C71.6486 70.0458 71.6739 69.8515 71.6655 69.6656C71.7917 69.0827 71.9011 68.4998 71.9684 67.8999C72.1536 66.2019 72.0778 64.5545 71.7496 63.0169C71.7244 62.8817 71.6739 62.7634 71.615 62.6452L71.6318 62.6367ZM68.6272 64.6474V64.6727C68.6777 65.0698 68.703 65.4838 68.703 65.9062C68.703 66.0076 68.703 66.1089 68.703 66.2188C68.703 66.6158 68.6777 67.0129 68.6356 67.4184L45.5502 59.325C46.0047 58.6069 46.5349 57.9311 47.1324 57.3144L68.6272 64.6474ZM77.2453 38.4833C77.2453 47.1089 73.4244 55.0587 66.7504 60.4317L47.2503 53.7746C46.678 53.5802 46.0468 53.707 45.5923 54.104C43.4125 56.0387 41.7966 58.5393 40.9297 61.3019C36.6796 58.6323 33.0522 55.1854 30.115 51.0204C27.2956 47.0244 25.3178 42.6483 24.2153 37.9849C25.3936 37.9849 26.5634 37.8328 27.6996 37.5709C27.7585 37.5625 27.8174 37.5456 27.8679 37.5371C30.0224 37.0218 32.0591 36.0671 33.8265 34.707H33.8434C33.8434 34.707 33.9023 34.6563 33.9359 34.6309C33.9612 34.614 33.978 34.5887 34.0033 34.5718C34.0454 34.5296 34.0958 34.4873 34.1379 34.4451C34.1716 34.4028 34.2053 34.369 34.2389 34.3268C34.2726 34.2846 34.3063 34.2339 34.3315 34.1916C34.3567 34.1494 34.382 34.0987 34.4072 34.0565C34.4325 34.0058 34.4577 33.9551 34.4746 33.9044C34.4914 33.8537 34.5082 33.803 34.5251 33.7523C34.5419 33.7016 34.5503 33.6509 34.5587 33.5918C34.5672 33.5327 34.5756 33.4735 34.5756 33.4228C34.5756 33.389 34.584 33.3637 34.584 33.3299L34.8196 14.3384C39.1624 11.7279 44.1026 10.3339 49.1944 10.3339C64.6548 10.3339 77.2369 22.964 77.2369 38.4833H77.2453ZM31.2344 32.4175C30.5695 32.8737 29.8625 33.2623 29.1303 33.5749V10.4268C29.9635 10.7901 30.7546 11.2294 31.4953 11.7786L31.2344 32.426V32.4175ZM61.928 77.3281C60.6319 77.9955 59.2517 78.4264 57.8378 78.6123C55.3129 78.3673 52.7292 77.9111 50.1622 77.2606C38.5143 74.2699 28.2635 67.1734 21.3033 57.289C14.7472 47.9706 11.5406 37.0471 12.0372 25.7012C12.1718 22.229 12.6852 18.7145 13.5521 15.2423C14.1244 14.3299 14.7977 13.5104 15.5635 12.7923C18.3409 10.1903 22.0776 8.9991 25.7723 9.4891V34.4958C24.6445 34.6394 23.4999 34.6478 22.3638 34.4873C21.8251 34.4113 21.2865 34.5971 20.9162 34.9858C20.5375 35.3744 20.3776 35.9235 20.4701 36.4557C21.5221 42.4117 23.8534 47.9706 27.3798 52.9804C31.0408 58.1761 35.7033 62.3579 41.2411 65.3993C41.7209 65.6612 42.3016 65.6781 42.7897 65.4331C43.2778 65.1881 43.6229 64.7234 43.7071 64.1827C43.7996 63.5745 43.9427 62.9831 44.1279 62.4002L67.8529 70.7132C66.7588 73.5264 64.6801 75.8919 61.9364 77.3281H61.928Z" fill="#3F4547"/>
<path d="M49.2125 17.2023C50.1383 17.2023 50.8957 16.442 50.8957 15.5127V13.5443C50.8957 12.615 50.1383 11.8546 49.2125 11.8546C48.2867 11.8546 47.5293 12.615 47.5293 13.5443V15.5127C47.5293 16.442 48.2867 17.2023 49.2125 17.2023Z" fill="#3F4547"/>
<path d="M72.0446 40.173H74.0476C74.9734 40.173 75.7308 39.4126 75.7308 38.4833C75.7308 37.554 74.9734 36.7937 74.0476 36.7937H72.0446C71.1188 36.7937 70.3613 37.554 70.3613 38.4833C70.3613 39.4126 71.1188 40.173 72.0446 40.173Z" fill="#3F4547"/>
<path d="M39.1878 48.9591C39.5161 49.2717 39.9369 49.4322 40.3493 49.4322C40.7953 49.4322 41.233 49.2548 41.5612 48.9084L50.415 39.6492C50.7179 39.3366 50.8863 38.9142 50.8863 38.4749V20.2521C50.8863 19.3228 50.1372 18.5625 49.203 18.5625C48.2688 18.5625 47.5198 19.3228 47.5198 20.2521V37.8075L39.1373 46.5767C38.4977 47.2526 38.5145 48.317 39.1878 48.9675V48.9591Z" fill="#3F4547"/>
</g>
</g>
<defs>
<clipPath id="clip0_912_932">
<rect width="88" height="88" fill="white" transform="translate(0.621094)"/>
</clipPath>
<clipPath id="clip1_912_932">
<rect width="72" height="76" fill="white" transform="translate(8.62109 6)"/>
</clipPath>
</defs>
</svg>
