<svg width="89" height="88" viewBox="0 0 89 88" fill="none" xmlns="http://www.w3.org/2000/svg">
<path d="M38.9699 67.5675C26.6302 60.6826 22.2083 45.098 29.0932 32.7583C35.9781 20.4187 51.5627 15.9967 63.9023 22.8816C76.242 29.7665 80.6639 45.3511 73.779 57.6908C66.8941 70.0304 51.3095 74.4524 38.9699 67.5675Z" fill="#3CB868"/>
<path d="M62.4597 30.9987C62.4597 20.9933 54.2533 12.8733 44.1205 12.8733C33.9877 12.8733 25.7813 20.984 25.7813 30.9987C25.7813 41.0133 33.9877 49.124 44.1205 49.124C54.2439 49.1147 62.4503 41.004 62.4597 30.9987ZM44.1205 47.1173C35.1114 47.1173 27.8116 39.9027 27.8116 30.9987C27.8116 22.0947 35.1114 14.88 44.1205 14.88C53.1296 14.88 60.4294 22.0947 60.4294 30.9987C60.4199 39.8933 53.1296 47.0987 44.1205 47.1173ZM81.4883 74.52L65.6138 47.36L65.6516 47.2853C65.8405 46.9027 66.0954 46.548 66.4071 46.2587L70.5339 42.3013C71.9315 41.004 72.5548 39.0813 72.1959 37.224L71.2138 31.6707C71.1383 31.2507 71.1383 30.8213 71.2138 30.4013L72.1959 24.8013C72.5548 22.9347 71.9221 21.0213 70.5244 19.724L66.426 15.804C66.1143 15.5147 65.8594 15.16 65.6705 14.7773L63.1396 9.67199C62.3181 7.95466 60.6749 6.77866 58.7673 6.53599L53.1201 5.74266C52.6952 5.68666 52.2797 5.55599 51.9019 5.35066L46.8119 2.69066C45.131 1.78532 43.0912 1.78532 41.4102 2.69066L36.3674 5.33199C35.9897 5.53732 35.5742 5.66799 35.1492 5.72399L29.4548 6.52666C27.5567 6.76932 25.9041 7.95466 25.0919 9.66266L22.5894 14.7213C22.4005 15.104 22.1456 15.4587 21.8339 15.748L17.7071 19.7053C16.3095 21.0027 15.6862 22.916 16.0451 24.7827L17.0272 30.336C17.1027 30.756 17.1027 31.1853 17.0272 31.6053L16.0451 37.2053C15.6862 39.072 16.3189 40.9853 17.7166 42.2827L21.815 46.2027C22.1267 46.492 22.3816 46.8467 22.5705 47.2293L22.6366 47.3507L6.75271 74.52C6.4694 74.996 6.63939 75.612 7.121 75.892C7.35709 76.0227 7.63095 76.06 7.89537 75.9947L20.7007 72.6067L24.1287 85.2533C24.2326 85.6453 24.5725 85.9347 24.9786 85.9907C25.0258 85.9907 25.0636 85.9907 25.1108 85.9907C25.4697 85.9907 25.8096 85.7947 25.989 85.4867L41.3158 59.2507L41.4197 59.3067C43.1006 60.2213 45.1404 60.2213 46.8213 59.3067L46.9252 59.2507L62.252 85.4867C62.4314 85.7947 62.7713 85.9907 63.1302 85.9907C63.1774 85.9907 63.2152 85.9907 63.2624 85.9907C63.6685 85.9347 64.0084 85.6453 64.1123 85.2533L67.5403 72.6067L80.3362 75.9947C80.8745 76.1347 81.4316 75.8173 81.5827 75.2853C81.6488 75.024 81.6111 74.7533 81.4789 74.52H81.4883ZM25.4602 82.388L22.41 71.1133C22.2683 70.5813 21.7112 70.264 21.1634 70.404L9.75573 73.428L23.7132 49.5347L25.1108 52.344C25.9324 54.0613 27.5755 55.2373 29.4831 55.48L35.1303 56.2733C35.5553 56.3293 35.9708 56.46 36.3485 56.6653L39.531 58.3267L25.4697 82.3973L25.4602 82.388ZM42.3735 57.5333L37.2834 54.8733C36.6979 54.556 36.0558 54.3507 35.3947 54.2667L29.7475 53.4733C28.5105 53.324 27.4433 52.5587 26.9145 51.4387L24.3837 46.3333C24.0909 45.736 23.7037 45.204 23.2127 44.7467L19.1142 40.8267C18.1982 39.9867 17.7921 38.7453 18.0282 37.5413L19.0103 31.9413C19.1331 31.2973 19.1331 30.6253 19.0103 29.9813L18.0282 24.428C17.7827 23.224 18.1982 21.9733 19.1048 21.1333L23.2316 17.1667C23.7132 16.7093 24.1098 16.1773 24.3931 15.58L26.9051 10.5213C27.4245 9.40132 28.501 8.63599 29.7381 8.48666L35.4325 7.68399C36.0936 7.59999 36.7357 7.39466 37.3212 7.07732L42.364 4.43599C43.45 3.83866 44.7815 3.83866 45.8675 4.43599L50.9576 7.09599C51.5431 7.40399 52.1852 7.60932 52.8463 7.70266L58.4935 8.49599C59.7305 8.64532 60.7977 9.41066 61.3265 10.5307L63.8479 15.636C64.1406 16.2333 64.5278 16.7653 65.0189 17.2227L69.1174 21.1427C70.0334 21.9827 70.4394 23.224 70.2034 24.428L69.2212 30.028C69.0985 30.672 69.0985 31.344 69.2212 31.988L70.2034 37.5413C70.4394 38.7453 70.0334 39.996 69.1268 40.836L65 44.7933C64.5184 45.2507 64.1218 45.7827 63.8385 46.38L61.3265 51.4387C60.8071 52.5587 59.7305 53.324 58.4935 53.4733L52.799 54.276C52.138 54.36 51.4958 54.5653 50.9104 54.8827L45.8675 57.524C44.7815 58.1213 43.4595 58.1213 42.3735 57.524V57.5333ZM67.0965 70.3947C66.5582 70.2453 66.001 70.5627 65.8499 71.104L62.7997 82.388L48.7384 58.3173L51.8736 56.6747C52.2513 56.4693 52.6668 56.3387 53.0918 56.2827L58.7862 55.48C60.6843 55.2373 62.3369 54.052 63.1491 52.344L64.5373 49.5347L78.4947 73.4373L67.087 70.4133L67.0965 70.3947Z" fill="#3F4547" stroke="#3F4547"/>
<path d="M52.6211 24L41.6211 35L36.6211 30" stroke="#3F4547" stroke-width="3" stroke-linecap="round" stroke-linejoin="round"/>
</svg>
