<svg width="129" height="30" viewBox="0 0 129 30" fill="none" xmlns="http://www.w3.org/2000/svg">
<g clip-path="url(#clip0_69_1942)">
<path d="M34.8326 8.0459V0.5H40.3087V8.00026C40.6434 8.01852 40.9081 8.04286 41.1727 8.04438C43.8819 8.04742 46.5911 8.02765 49.2987 8.06112C49.892 8.06872 50.5141 8.1813 51.0693 8.38517C52.1128 8.76855 52.6909 9.55356 52.6924 10.7022C52.6954 13.4376 52.7046 16.1714 52.6924 18.9068C52.6848 20.5058 51.7493 21.5692 50.1521 21.7913C49.5041 21.8811 48.8424 21.9145 48.1868 21.9176C45.6084 21.9313 43.0301 21.9237 40.3559 21.9237V29.5015H34.8493V21.9663C34.4934 21.9495 34.2028 21.9237 33.9123 21.9237C31.4572 21.9206 29.0005 21.9313 26.5454 21.9161C25.9917 21.913 25.4319 21.8674 24.8858 21.7746C23.4499 21.5327 22.5204 20.5377 22.4976 19.0727C22.452 16.2384 22.4505 13.4011 22.4991 10.5668C22.525 9.03174 23.8104 8.06264 25.7042 8.05199C28.4377 8.03678 31.1727 8.04742 33.9062 8.04742C34.1785 8.04742 34.4523 8.04742 34.8341 8.04742L34.8326 8.0459ZM34.8326 18.9875C34.8326 16.2931 34.8402 13.6932 34.8113 11.0932C34.8113 10.9608 34.4949 10.7204 34.323 10.7174C32.6285 10.69 30.9339 10.6809 29.2393 10.7113C28.3525 10.7265 27.7669 11.2818 27.7562 12.1125C27.7304 13.9594 27.7365 15.8063 27.7608 17.6532C27.7699 18.3972 28.2384 18.9555 28.9595 18.9722C30.8761 19.0179 32.7958 18.9875 34.8341 18.9875H34.8326ZM40.3483 18.9935C42.3562 18.9935 44.2728 19.0225 46.1895 18.9799C46.9485 18.9631 47.4429 18.3013 47.4475 17.4479C47.4581 15.7272 47.4596 14.0081 47.4429 12.2874C47.4338 11.3381 46.8983 10.7372 45.9598 10.7159C44.2668 10.6763 42.5707 10.7083 40.8776 10.6961C40.4867 10.6931 40.3437 10.8467 40.3452 11.2331C40.3544 13.7844 40.3498 16.3373 40.3498 18.9935H40.3483Z" fill="black"/>
<path d="M77.5769 21.7685V8.21025H83.0789C83.0789 8.48257 83.0789 8.74881 83.0789 9.01505C83.0789 12.0547 83.0956 15.0959 83.0637 18.1355C83.0561 18.7973 83.2417 19.0179 83.9186 18.9982C85.5645 18.954 87.2118 18.9495 88.8577 19.0012C89.6031 19.024 89.8678 18.8369 89.8556 18.0397C89.8084 15 89.8526 11.9589 89.8237 8.9192C89.8176 8.31979 89.9971 8.12353 90.5934 8.13875C91.9092 8.17374 93.228 8.17374 94.5438 8.1357C95.1233 8.11897 95.2724 8.32435 95.2678 8.88117C95.245 11.9467 95.2739 15.0122 95.2466 18.0777C95.2405 18.7456 95.3926 19.0225 96.1273 19.0012C97.8234 18.9495 99.521 18.9601 101.219 18.9997C101.857 19.0149 102.035 18.7973 102.029 18.1751C102.002 15.1598 102.016 12.1445 102.016 9.13067C102.016 8.85378 102.016 8.57842 102.016 8.22242H107.431C107.445 8.42324 107.472 8.61949 107.472 8.81575C107.472 12.8701 107.461 16.923 107.481 20.9774C107.484 21.5784 107.344 21.8172 106.683 21.8157C97.183 21.7959 87.6849 21.8035 78.1854 21.802C78.0104 21.802 77.8355 21.7837 77.5769 21.7685V21.7685Z" fill="black"/>
<path d="M110.554 10.7068V8.1023C110.799 8.08556 111.019 8.05818 111.238 8.05818C115.797 8.05513 120.355 8.05057 124.913 8.06426C125.441 8.06578 125.978 8.12664 126.492 8.24074C127.807 8.53132 128.634 9.46086 128.646 10.8179C128.68 14.3885 128.651 17.9607 128.645 21.5313C128.645 21.5784 128.611 21.6241 128.561 21.7595C128.333 21.7716 128.067 21.8005 127.799 21.8005C122.785 21.8036 117.77 21.8036 112.756 21.8005C110.922 21.8005 109.799 20.7721 109.72 18.9511C109.67 17.7887 109.681 16.6203 109.732 15.4565C109.805 13.8028 110.904 12.7728 112.586 12.7637C115.828 12.7485 119.069 12.7683 122.311 12.7455C122.665 12.7424 123.184 12.6694 123.336 12.4366C123.61 12.0213 123.16 11.1176 122.638 10.932C122.219 10.7829 121.753 10.7145 121.308 10.7129C118.093 10.6962 114.875 10.7053 111.66 10.7068C111.311 10.7068 110.963 10.7068 110.555 10.7068H110.554ZM119.627 18.986V18.983C120.689 18.983 121.751 18.9708 122.813 18.9891C123.236 18.9952 123.411 18.8248 123.404 18.4095C123.395 17.626 123.395 16.8425 123.406 16.0574C123.412 15.6117 123.216 15.423 122.766 15.4261C120.718 15.4398 118.671 15.4078 116.623 15.4519C115.37 15.4793 114.889 16.0696 114.915 17.3552C114.936 18.4201 115.501 18.9571 116.669 18.9815C117.655 19.0013 118.64 18.986 119.626 18.986H119.627Z" fill="black"/>
<path d="M14.2408 12.7591C14.4477 11.3138 13.9503 10.7174 12.5706 10.7129C9.20278 10.6992 5.83496 10.7083 2.46562 10.7083C2.19181 10.7083 1.91801 10.7083 1.594 10.7083V8.05657C1.82978 8.05657 2.07164 8.05657 2.31199 8.05657C6.845 8.05657 11.378 8.0444 15.911 8.07026C16.5819 8.07483 17.2801 8.18132 17.9159 8.39279C18.9716 8.7427 19.5861 9.52468 19.5907 10.6718C19.6044 14.1922 19.5922 17.7126 19.6013 21.233C19.6013 21.6544 19.4462 21.8065 19.0203 21.8065C13.7784 21.7959 8.53652 21.8096 3.29465 21.7868C2.12945 21.7822 0.959685 20.874 0.827345 19.6949C0.660019 18.1979 0.600694 16.6598 0.745203 15.1643C0.895797 13.6004 2.05339 12.7652 3.64907 12.7606C6.86478 12.753 10.082 12.7575 13.2977 12.7575C13.5974 12.7575 13.8986 12.7575 14.2423 12.7575L14.2408 12.7591ZM10.6479 18.9844C11.6853 18.9844 12.7227 18.9723 13.7586 18.9905C14.1815 18.9981 14.3458 18.8399 14.3336 18.4139C14.3123 17.6046 14.3154 16.7952 14.3306 15.9859C14.3382 15.604 14.1952 15.4321 13.8043 15.4336C11.7294 15.4412 9.65456 15.4017 7.58276 15.4503C6.34455 15.4808 5.85017 16.1136 5.89581 17.3825C5.93384 18.4307 6.51644 18.9616 7.68772 18.9814C8.67342 18.9981 9.66065 18.9844 10.6479 18.9844V18.9844Z" fill="black"/>
<path d="M61.1105 17.0568C62.0704 15.9873 63.0302 14.9193 63.9885 13.8498C65.5416 12.1155 67.078 10.3644 68.6615 8.65897C68.914 8.38664 69.3764 8.18735 69.7491 8.17213C71.1638 8.11736 72.583 8.15692 74.0007 8.14779C74.3886 8.14475 74.6137 8.23299 74.6122 8.69243C74.5955 12.9705 74.5924 17.2485 74.5833 21.5266C74.5833 21.5737 74.5544 21.6224 74.5164 21.735H69.1969V12.6921C68.9216 12.9355 68.7695 13.0435 68.6493 13.1789C66.2642 15.8656 63.8744 18.5508 61.506 21.2542C61.1592 21.6498 60.8108 21.8247 60.2769 21.8126C58.7147 21.7776 57.1525 21.8004 55.534 21.8004C55.5127 21.4748 55.4823 21.2299 55.4823 20.985C55.4792 16.9853 55.496 12.9857 55.4655 8.98606C55.461 8.30601 55.6694 8.10976 56.3265 8.1341C57.5647 8.17974 58.809 8.18887 60.0457 8.13258C60.7728 8.09911 60.9234 8.37599 60.9112 9.04539C60.8717 11.4491 60.8899 13.8544 60.8899 16.2596C60.8899 16.5031 60.9097 16.7465 60.9204 16.9899L61.1075 17.0583L61.1105 17.0568Z" fill="black"/>
</g>
<defs>
<clipPath id="clip0_69_1942">
<rect width="128" height="29" fill="white" transform="translate(0.663086 0.5)"/>
</clipPath>
</defs>
</svg>
