<svg width="125" height="32" viewBox="0 0 125 32" fill="none" xmlns="http://www.w3.org/2000/svg">
<g clip-path="url(#clip0_69_1975)">
<path fill-rule="evenodd" clip-rule="evenodd" d="M110.484 0V21.4509H114.251V15.0648L119.771 21.4509H124.663L117.835 13.5364L124.192 6.59507H119.405L114.251 12.3225V0H110.484Z" fill="#EF3124"/>
<path fill-rule="evenodd" clip-rule="evenodd" d="M102.557 5.96378C100.386 5.96378 98.9981 7.12488 98.3178 8.23321V6.59711H94.55V21.4508H98.3178V12.3752C98.3178 10.3169 99.3121 9.36687 101.039 9.36687C102.766 9.36687 103.681 10.3169 103.681 12.3752V21.4508H107.448V12.1894C107.448 8.12554 105.749 5.96167 102.557 5.96167V5.96378Z" fill="#EF3124"/>
<path fill-rule="evenodd" clip-rule="evenodd" d="M34.7742 5.35585C34.7742 3.90553 35.375 3.24476 36.7628 3.24476H41.0016V0H35.6764C32.6245 0.00422219 31.0085 1.61499 31.0085 4.64441V7.51973H27.6343V10.9503H31.0085V21.4509H34.7763V10.9503H38.4646V7.51973H34.7763V5.35585H34.7742Z" fill="#EF3124"/>
<path d="M25.6706 0H21.9028V21.4509H25.6706V0Z" fill="#EF3124"/>
<path d="M20.7998 27.78H0.663086V32.0001H20.7998V27.78Z" fill="#EF3124"/>
<path fill-rule="evenodd" clip-rule="evenodd" d="M7.85543 13.6166L10.6792 5.15106H10.7838L13.4506 13.6166H7.85334H7.85543ZM14.3925 3.58674C13.819 1.85986 13.1575 0.496094 10.8885 0.496094C8.61946 0.496094 7.91614 1.85564 7.31329 3.58674L1.08179 21.4508H5.21379L6.65183 17.2054H14.6019L15.9352 21.4508H20.3289L14.3925 3.58885V3.58674Z" fill="#EF3124"/>
<path fill-rule="evenodd" clip-rule="evenodd" d="M87.4898 15.9092C87.4898 17.6234 86.2862 18.6008 84.7162 18.6008C83.3557 18.6008 82.2839 18.1005 82.2839 16.6227C82.2839 15.1449 83.4603 14.9338 84.4818 14.9338H87.4898V15.9092ZM91.2575 16.8845V11.8981C91.2575 8.25643 88.955 5.96167 85.0847 5.96167C81.2143 5.96167 78.962 8.38943 78.7799 10.9227H82.6C82.7298 10.3696 83.3054 9.41965 85.0847 9.41965C86.5499 9.41965 87.4918 10.1058 87.4918 11.9002H83.7513C80.4021 11.9002 78.4136 13.6672 78.4136 16.6227C78.4136 19.5782 80.5884 21.8202 83.7241 21.8202C86.0224 21.8202 87.2993 20.7246 87.8582 19.8949C88.3543 20.8977 89.4532 21.4508 90.8933 21.4508H92.2016V18.0203C91.5213 18.0203 91.2596 17.7036 91.2596 16.8866L91.2575 16.8845Z" fill="#EF3124"/>
<path fill-rule="evenodd" clip-rule="evenodd" d="M48.403 15.9092C48.403 17.6234 47.1994 18.6008 45.6295 18.6008C44.2689 18.6008 43.1972 18.1005 43.1972 16.6227C43.1972 15.1449 44.3735 14.9338 45.395 14.9338H48.403V15.9092ZM52.1708 16.8845V11.8981C52.1708 8.25643 49.8682 5.96167 45.9958 5.96167C42.1233 5.96167 39.8752 8.38943 39.691 10.9227H43.5111C43.643 10.3696 44.2186 9.41965 45.9958 9.41965C47.461 9.41965 48.403 10.1058 48.403 11.9002H44.6624C41.3133 11.9002 39.3247 13.6672 39.3247 16.6227C39.3247 19.5782 41.4996 21.8202 44.6352 21.8202C46.9335 21.8202 48.2104 20.7246 48.7693 19.8949C49.2654 20.8977 50.3643 21.4508 51.8045 21.4508H53.1127V18.0203C52.4324 18.0203 52.1708 17.7036 52.1708 16.8866V16.8845Z" fill="#EF3124"/>
<path fill-rule="evenodd" clip-rule="evenodd" d="M69.0715 17.8365H63.9703V12.5588H69.0715C71.2422 12.5588 72.3411 13.456 72.3411 15.1977C72.3411 16.9393 71.217 17.8365 69.0715 17.8365ZM63.9703 4.35297H69.4127C71.0349 4.35297 71.8973 5.11718 71.8973 6.67517C71.8973 8.23316 71.0349 8.99738 69.4378 8.99738H63.9703V4.35297ZM73.2579 10.5533C74.6708 9.91993 75.9519 8.44216 75.9519 6.35851C75.9519 2.84987 73.6766 0.73877 69.8564 0.73877H60.0728V21.4507H69.5173C73.9131 21.4507 76.3977 19.2615 76.3977 15.4341C76.3977 12.7171 74.855 11.1591 73.2579 10.5533Z" fill="#EF3124"/>
</g>
<defs>
<clipPath id="clip0_69_1975">
<rect width="124" height="32" fill="white" transform="translate(0.663086)"/>
</clipPath>
</defs>
</svg>
