<svg width="68" height="26" viewBox="0 0 68 26" fill="none" xmlns="http://www.w3.org/2000/svg">
<g clip-path="url(#clip0_69_1985)">
<path fill-rule="evenodd" clip-rule="evenodd" d="M55.6618 6.57085C52.1616 6.57085 49.3247 9.44974 49.3247 13.0007C49.3247 16.5517 52.1629 19.4305 55.6618 19.4305C58.1581 19.4305 60.3164 17.9667 61.3494 15.8392H67.6617C66.3957 21.3744 61.5038 25.5 55.6618 25.5C48.8571 25.5 43.3406 19.9036 43.3406 13.0007C43.3406 6.09776 48.8571 0.5 55.6618 0.5C61.4087 0.5 66.2371 4.49343 67.5983 9.895H61.2115C60.1026 7.84819 57.9746 6.57224 55.6618 6.57085ZM37.2379 25.1396H31.3793V6.44423H26.3261V0.5H42.2924V6.44423H37.2365V25.1396H37.2379ZM12.9829 19.4305C15.4792 19.4305 17.6375 17.9667 18.6705 15.8392H24.9828C23.7168 21.3744 18.8236 25.5 12.9829 25.5C6.17965 25.5 0.663086 19.9036 0.663086 13.0007C0.663086 6.09776 6.17965 0.5 12.9843 0.5C18.7312 0.5 23.5596 4.49343 24.9208 9.895H18.534C17.4265 7.84819 15.2985 6.57085 12.9857 6.57085C9.48545 6.57085 6.64717 9.44974 6.64717 13.0007C6.64717 16.5517 9.48545 19.4305 12.9857 19.4305H12.9829Z" fill="#FFCB40"/>
</g>
<defs>
<clipPath id="clip0_69_1985">
<rect width="67" height="25" fill="white" transform="translate(0.663086 0.5)"/>
</clipPath>
</defs>
</svg>
