<svg width="91" height="30" viewBox="0 0 91 30" fill="none" xmlns="http://www.w3.org/2000/svg">
<g clip-path="url(#clip0_69_1972)">
<path fill-rule="evenodd" clip-rule="evenodd" d="M48.3401 16.3581C48.0332 13.4756 45.6654 11.3453 42.5987 11.3453C39.532 11.3453 37.1642 13.8733 36.8573 16.3581H48.3412H48.3401ZM51.5424 25.0244C51.6688 25.1105 51.7539 25.2465 51.7769 25.3988C51.7999 25.5512 51.7585 25.707 51.6631 25.8267C49.7079 28.3233 46.9435 29.9233 42.9481 29.9233C36.4171 29.9233 31.7723 25.2221 31.7723 18.5233C31.7723 11.8244 36.4608 7.12442 42.6849 7.12442C48.9091 7.12442 53.3792 12.0477 53.3792 18.5233C53.3792 18.7419 53.37 19.1674 53.3608 19.5174C53.3527 19.8291 53.1022 20.0767 52.7941 20.0767H36.8114C37.0309 23.2267 39.7918 25.5779 42.9918 25.5779C45.3585 25.5779 46.6608 24.7058 47.778 23.2535C47.9585 23.0151 48.2918 22.9581 48.5401 23.1233C49.2746 23.6291 50.7619 24.5 51.5424 25.0233V25.0244ZM66.0102 24.8605C63.6378 24.8605 62.5412 23.7512 62.5412 21.257V12.1372H65.0183C65.3309 12.1372 65.5849 11.8802 65.5849 11.564V8.18605C65.5849 7.86977 65.3309 7.61279 65.0183 7.61279H62.5447V2.18488C62.5447 2.03256 62.4849 1.88721 62.3792 1.77907C62.2723 1.67093 62.1286 1.61163 61.978 1.61163H58.1884C57.8746 1.61163 57.6217 1.8686 57.6217 2.18488V7.61512H55.2585C54.9458 7.61512 54.693 7.87209 54.693 8.18837V11.5674C54.693 11.7198 54.7516 11.8651 54.8585 11.9733C54.9654 12.0814 55.1091 12.1407 55.2585 12.1407H57.6194V22.2279C57.6194 26.9349 60.3125 29.757 64.7838 29.757C65.5596 29.757 66.1068 29.6698 66.7171 29.4442C67.1056 29.2965 67.3608 28.9198 67.3562 28.5L67.3435 25.3616C67.3412 25.1977 67.2688 25.043 67.1458 24.936C67.0229 24.8291 66.8608 24.7814 66.701 24.8035C66.4723 24.836 66.2412 24.8558 66.0091 24.8605H66.0102ZM79.4849 24.8605C77.1125 24.8605 76.0171 23.7512 76.0171 21.257V12.1372H78.4953C78.6447 12.1372 78.7895 12.0767 78.8953 11.9686C79.0022 11.8605 79.0608 11.7151 79.0608 11.5628V8.18488C79.0608 7.8686 78.8079 7.61163 78.4953 7.61163H76.0171V2.18488C76.0171 1.8686 75.7631 1.61163 75.4504 1.61163H71.6608C71.5102 1.61163 71.3665 1.67209 71.2608 1.78023C71.1539 1.88837 71.0953 2.03372 71.0953 2.18488V7.61512H68.7355C68.4229 7.61512 68.1688 7.87209 68.1688 8.18837V11.5674C68.1688 11.7198 68.2286 11.8651 68.3343 11.9733C68.4401 12.0814 68.5849 12.1407 68.7355 12.1407H71.0964V22.2279C71.0964 26.9349 73.7895 29.757 78.2619 29.757C79.0366 29.757 79.5849 29.6698 80.1953 29.4442C80.5826 29.2965 80.8378 28.9186 80.8343 28.5L80.8217 25.3616C80.8194 25.1977 80.747 25.043 80.624 24.936C80.501 24.8291 80.3389 24.7814 80.1792 24.8035C79.9504 24.836 79.7194 24.8558 79.4872 24.8605H79.4849ZM14.7298 14.3337V17.5919C14.7298 17.7442 14.7895 17.8895 14.8953 17.9965C15.001 18.1047 15.1458 18.1651 15.2953 18.1651H24.0516C23.3976 22.3488 20.0033 25.3233 15.4654 25.3233C9.94584 25.3233 5.65274 20.6895 5.65274 15.0198C5.65274 9.35 9.98607 4.71744 15.4229 4.71744C18.47 4.71744 21.0585 5.96628 22.7562 8.21861C22.9309 8.45 23.2504 8.51163 23.4964 8.3593L26.7815 6.34884C26.9033 6.27326 26.9884 6.15 27.016 6.0093C27.0435 5.86744 27.0114 5.72093 26.9263 5.60465C24.516 2.23837 20.3723 0 15.4642 0C7.33205 0 0.663086 6.74419 0.663086 15.0209C0.663086 23.2977 7.20906 30 15.4229 30C23.6366 30 29.1079 23.7523 29.1079 15.6826V14.3942C29.1079 14.2419 29.0481 14.0965 28.9412 13.9884C28.8343 13.8802 28.6907 13.8198 28.5412 13.8198H15.2366C14.9562 13.8198 14.7298 14.05 14.7298 14.3337Z" fill="#263238"/>
<path fill-rule="evenodd" clip-rule="evenodd" d="M87.6538 23.5569C86.3894 23.5569 85.6136 23.7499 85.1687 24.2999C84.786 24.7708 84.6458 25.5034 84.6458 26.6022C84.6458 27.7604 84.8021 28.5139 85.2354 28.9801C85.6906 29.4708 86.4503 29.6464 87.6538 29.6464C89.032 29.6464 89.8239 29.4174 90.248 28.7522C90.5492 28.279 90.663 27.5883 90.663 26.6022C90.663 25.4267 90.5009 24.6685 90.0538 24.2034C89.6067 23.7383 88.8412 23.5569 87.6538 23.5569Z" fill="#FF9D00"/>
</g>
<defs>
<clipPath id="clip0_69_1972">
<rect width="90" height="30" fill="white" transform="translate(0.663086)"/>
</clipPath>
</defs>
</svg>
