<svg xmlns="http://www.w3.org/2000/svg" width="169" height="36" viewBox="0 0 169 36">
    <path fill="#2A3133" fill-rule="evenodd" d="M0 0h24v28h-7V7H7v21H0V0zm59.16 28H53V8h6.996v9H61l6.84-9H74v20h-7v-9h-1l-6.84 9zm70 0H123V8h6.996v9H131l6.84-9H144v20h-7v-9h-1l-6.84 9zM98 28h-7v-7h-6v7h-7V8h7v7h6V8h7v20zM41 7.5c4.62 0 9 4.038 9 10.5s-4.38 10.5-9 10.5c-2.013 0-3.666-.501-4.997-1.504H35V36h-7V8h7v1h1.003C37.334 8 38.987 7.5 41 7.5zm117.02 0C164.64 7.5 169 11.538 169 18s-4.36 10.5-10.98 10.5C151.44 28.5 147 24.462 147 18s4.44-10.5 11.02-10.5zM120 8v6h-6v14h-7V14h-6V8h19zm-81 5c-2.821 0-4 2.252-4 5 0 2.786 1.179 5 4 5 2.783 0 4-2.214 4-5 0-2.748-1.217-5-4-5zm119 0c-2.821 0-4 2.252-4 5 0 2.786 1.179 5 4 5 2.783 0 4-2.214 4-5 0-2.748-1.217-5-4-5z"/>
</svg>
