<svg width="61" height="40" viewBox="0 0 61 40" fill="none" xmlns="http://www.w3.org/2000/svg">
<path d="M37.6572 28.9617C37.6572 32.6868 34.6794 35.7044 30.998 35.7044C27.3166 35.7044 24.3445 32.6868 24.3445 28.9617C24.3445 25.2367 27.3222 22.219 30.998 22.219C34.6738 22.219 37.6572 25.2367 37.6572 28.9617Z" fill="white"/>
<path d="M27.4967 25.6018C27.4967 24.9059 28.0597 24.3354 28.7464 24.3354C29.4331 24.3354 29.996 24.9002 29.996 25.6018C29.996 26.3035 29.4388 26.8682 28.7464 26.8682C28.054 26.8682 27.4967 26.3035 27.4967 25.6018ZM48.5944 23.5425H45.3802V19.4296H48.6507C49.6639 19.4296 50.5702 20.3423 50.5702 21.4318C50.5702 22.6868 49.6133 23.5425 48.5944 23.5425ZM49.1573 31.603H45.3802V27.3189H49.1573C50.3957 27.3189 51.3583 28.2316 51.3583 29.4353C51.3583 30.7473 50.4576 31.603 49.1573 31.603ZM49.9454 35.6589C53.9476 35.6589 56.3738 33.32 56.3738 29.6577C56.3738 27.4843 55.3042 25.7159 53.3284 24.8602C54.8539 23.8334 55.1917 22.3446 55.1917 20.8043C55.1917 17.2618 52.5404 15.4877 48.8196 15.4877H37.4883V19.4296H40.7588V31.603H37.4883V35.6589H49.951H49.9454ZM24.5134 15.4877H16.9592V23.5482H12.3884V15.4877H4.83421V19.4296H8.10468V31.603H4.83421V35.6589H12.3884V27.3189H16.9592V35.6589H24.5134V31.603H21.3555V19.4296H24.5134V15.4877ZM58.1188 24.7462C59.5823 25.83 60.6575 27.7182 60.6575 29.8916C60.6575 33.2059 59.6386 35.2025 57.8373 37.0337C56.0304 38.8648 53.0414 40.0057 49.4894 40.0057H33.3059V35.2824C35.839 34.3297 37.6459 31.8597 37.6459 28.9618C37.6459 26.0639 35.839 23.5881 33.3059 22.6355V7.5984H37.4827V11.3691H41.5975V4.16999H20.3985V11.3691H24.5134V7.5984H28.6845V22.6241C26.1514 23.5767 24.3445 26.0525 24.3445 28.9504C24.3445 31.8483 26.1514 34.324 28.6845 35.271V39.9943H0.663086V27.3075H3.98985V23.5368H0.663086V11.1409H16.1148V0H46.0051V11.1409H48.0934C51.195 11.1409 54.1841 11.8825 56.0979 13.3143C58.1863 14.8602 59.481 17.142 59.481 20.2852C59.481 21.5973 59.1995 23.5425 58.1244 24.7404L58.1188 24.7462Z" fill="#0DB14B"/>
</svg>
