<svg width="112" height="22" viewBox="0 0 112 22" fill="none" xmlns="http://www.w3.org/2000/svg">
<g clip-path="url(#clip0_69_1951)">
<path fill-rule="evenodd" clip-rule="evenodd" d="M17.7009 21.1157V0.880859H0.663086V21.1157H5.09186V4.9583H13.2721V21.1157H17.7009Z" fill="#E01935"/>
<path fill-rule="evenodd" clip-rule="evenodd" d="M35.7389 13.3152C37.0759 12.0069 37.8129 10.1421 37.8129 8.06856C37.8129 3.76919 34.7527 0.880859 30.1976 0.880859H21.3682V21.1157H25.7969V15.3821H30.1976C32.4436 15.3821 34.3597 14.6667 35.7389 13.3152ZM25.7969 11.3544V4.90862H30.0081C31.9944 4.90862 33.2753 6.16729 33.2753 8.12155C33.2753 10.0758 31.9909 11.3577 30.0081 11.3577H25.7969V11.3544Z" fill="#E01935"/>
<path fill-rule="evenodd" clip-rule="evenodd" d="M111.663 21.1157V0.880859H107.255L97.4047 15.3159L98.2996 15.2563V0.880859H93.9235V21.1157H98.3347L108.505 6.19711L107.29 6.52502V21.1157H111.663Z" fill="#E01935"/>
<path fill-rule="evenodd" clip-rule="evenodd" d="M50.8851 0.5C47.8495 0.5 45.0385 1.5765 42.9715 3.53076C40.901 5.48502 39.7605 8.13817 39.7605 11C39.7605 13.8618 40.901 16.5183 42.9715 18.4692C45.042 20.4235 47.853 21.5 50.8851 21.5C53.9171 21.5 56.7281 20.4235 58.7986 18.4692C60.8691 16.515 62.0096 13.8618 62.0096 11C62.0096 8.13817 60.8691 5.48502 58.7986 3.53076C56.7281 1.5765 53.9171 0.5 50.8851 0.5V0.5ZM50.8851 17.4457C47.1757 17.4457 44.27 14.6137 44.27 11C44.27 7.38628 47.1757 4.55426 50.8851 4.55426C54.5944 4.55426 57.5001 7.38628 57.5001 11C57.5001 14.6137 54.5944 17.4457 50.8851 17.4457Z" fill="#E01935"/>
<path fill-rule="evenodd" clip-rule="evenodd" d="M88.512 16.8197C90.193 15.2729 91.123 13.1397 91.123 10.8211C91.123 8.50252 90.1965 6.35615 88.512 4.80268C86.7995 3.22271 84.4026 2.35158 81.7671 2.35158H79.858V0.5H75.6117V2.34826H73.6605C71.025 2.34826 68.6282 3.2194 66.9156 4.79937C65.2347 6.35284 64.3047 8.49259 64.3047 10.8178C64.3047 13.1431 65.2311 15.2696 66.9156 16.8164C68.6282 18.3897 71.025 19.2576 73.6605 19.2576H75.6117V21.4934H79.858V19.2576H81.7671C84.4061 19.2576 86.7995 18.3897 88.512 16.8164V16.8197ZM75.6082 15.2563H73.4605C70.7232 15.2563 68.8107 13.4345 68.8107 10.8211C68.8107 8.20773 70.7232 6.38596 73.4605 6.38596H75.6082V15.2563ZM79.8545 6.38596H81.9601C84.6974 6.38596 86.61 8.20773 86.61 10.8211C86.61 13.4345 84.6974 15.2563 81.9601 15.2563H79.8545V6.38596Z" fill="#E01935"/>
</g>
<defs>
<clipPath id="clip0_69_1951">
<rect width="111" height="21" fill="white" transform="translate(0.663086 0.5)"/>
</clipPath>
</defs>
</svg>
