<svg width="136" height="32" viewBox="0 0 136 32" fill="none" xmlns="http://www.w3.org/2000/svg">
<g clip-path="url(#clip0_69_1957)">
<path fill-rule="evenodd" clip-rule="evenodd" d="M12.2429 21.9985L14.1439 19.3514C15.571 20.5884 17.7086 21.383 19.6394 21.383C21.1255 21.383 22.1649 20.8799 22.1649 19.8518C22.1649 18.7633 21.3334 18.3507 19.1661 17.9687C16.1658 17.4406 12.9557 16.7329 12.9557 13.0559C12.9557 9.90842 15.5707 8.08569 19.1048 8.08569C22.3431 8.08569 24.3037 8.90795 26.0566 10.2907L24.1859 12.9681C22.5814 11.8808 21.0056 11.2623 19.521 11.2623C18.1537 11.2623 17.3822 11.7915 17.3822 12.6451C17.3822 13.5863 18.2435 13.9698 20.2041 14.322C23.324 14.8513 26.6213 15.5563 26.6213 19.1176C26.6213 22.9115 23.2946 24.4097 19.6394 24.4097C15.9843 24.4097 13.8467 23.3542 12.2426 21.9985H12.2429Z" fill="black"/>
<path fill-rule="evenodd" clip-rule="evenodd" d="M39.2355 16.2642C39.2355 13.6453 38.313 11.996 36.1736 11.996C34.9559 11.996 33.8578 12.7341 33.0564 13.5272V19.3224C34.0947 20.2913 34.9559 20.7643 36.2349 20.7643C38.2243 20.7643 39.2352 19.1174 39.2352 16.2642H39.2355ZM37.9292 8.08521C41.5228 8.08521 44.0167 10.8221 44.0167 16.2326C44.0167 21.6431 41.4927 24.3229 37.8676 24.3229C35.7289 24.3229 34.2443 23.559 33.0564 22.2336V29.9711H28.2546V12.6449C28.2546 10.7602 28.1347 9.61551 27.8096 8.82091L32.4905 8.08521C32.7297 8.64359 32.938 10.0852 32.938 10.9667C33.9774 9.55631 35.5804 8.08521 37.9292 8.08521Z" fill="black"/>
<path fill-rule="evenodd" clip-rule="evenodd" d="M57.1051 16.2922C57.1051 13.6748 56.184 11.5555 53.8085 11.5555C51.4329 11.5555 50.4812 13.4675 50.4812 16.2922C50.4812 18.9104 51.3725 21.0866 53.8085 21.0866C56.0671 21.0866 57.1051 19.1457 57.1051 16.2922ZM45.6985 16.2633C45.6985 10.1148 49.9451 8.08496 53.8085 8.08496C57.6719 8.08496 61.8881 10.1151 61.8881 16.2633C61.8881 22.4116 57.6403 24.4089 53.8085 24.4089C49.9766 24.4089 45.6985 22.3509 45.6985 16.2633Z" fill="black"/>
<path fill-rule="evenodd" clip-rule="evenodd" d="M68.958 11.1442C69.8208 9.8192 71.3955 8.08453 74.0989 8.08453C74.3071 8.08453 74.6978 8.14223 74.6978 8.14223L74.3411 12.2923C74.3072 12.2607 73.533 12.2042 73.2364 12.2042C71.3354 12.2042 69.9091 13.2047 69.0184 14.35V24.0875H64.2357V12.6451C64.2357 10.7608 64.1173 9.61574 63.7906 8.82113L68.454 8.08423C68.6935 8.64382 68.9003 10.2616 68.9003 11.1439H68.9586L68.958 11.1442Z" fill="black"/>
<path fill-rule="evenodd" clip-rule="evenodd" d="M84.0914 20.4993C84.8929 20.4993 85.8452 20.322 86.2603 20.2036L87.1801 23.618C86.3501 23.9095 85.0726 24.2918 82.7253 24.2918C78.0307 24.2918 77.9426 21.7339 77.9426 18.7935V12.1915H75.4471L75.7369 8.10783H77.9429V3.907L82.6944 3.02344V8.10783H86.7654V12.1915H82.6944V18.3508C82.6944 19.7336 83.0222 20.4993 84.0917 20.4993H84.0914Z" fill="black"/>
<path fill-rule="evenodd" clip-rule="evenodd" d="M87.689 21.9985L89.5912 19.3514C91.0145 20.5884 93.1553 21.383 95.0846 21.383C96.5704 21.383 97.6099 20.8799 97.6099 19.8518C97.6099 18.7633 96.7786 18.3507 94.6098 17.9687C91.6095 17.4406 88.4021 16.7329 88.4021 13.0559C88.4021 9.90842 91.0145 8.08569 94.5494 8.08569C97.7884 8.08569 99.7504 8.90795 101.502 10.2907L99.632 12.9681C98.0276 11.8808 96.4517 11.2623 94.9677 11.2623C93.6016 11.2623 92.8272 11.7915 92.8272 12.6451C92.8272 13.5863 93.6899 13.9698 95.6505 14.322C98.7692 14.8513 102.066 15.5563 102.066 19.1176C102.066 22.9115 98.741 24.4097 95.0846 24.4097C91.4283 24.4097 89.2934 23.3542 87.689 21.9985Z" fill="black"/>
<path fill-rule="evenodd" clip-rule="evenodd" d="M113.411 11.1442C114.272 9.8192 115.847 8.08453 118.549 8.08453C118.757 8.08453 119.15 8.14223 119.15 8.14223L118.792 12.2923C118.757 12.2607 117.986 12.2042 117.689 12.2042C115.788 12.2042 114.361 13.2047 113.47 14.35V24.0875H108.688V12.6451C108.688 10.7608 108.568 9.61574 108.242 8.82113L112.906 8.08423C113.144 8.64382 113.351 10.2616 113.351 11.1439H113.411V11.1442Z" fill="black"/>
<path fill-rule="evenodd" clip-rule="evenodd" d="M130.434 21.5274C129.483 22.734 127.702 24.4098 124.938 24.4098C122.174 24.4098 120.303 23.0886 120.303 19.8519V8.10742H125.086V18.4673C125.086 19.8804 125.621 20.6435 126.957 20.6435C128.293 20.6435 129.335 19.9697 130.405 19.0558V8.10742H135.187V19.53C135.187 21.412 135.306 22.8509 135.663 23.6455L130.878 24.4101C130.642 23.794 130.492 22.3232 130.492 21.5277H130.434L130.434 21.5274Z" fill="black"/>
<path fill-rule="evenodd" clip-rule="evenodd" d="M3.30404 5.33504C1.84954 5.33504 0.663086 4.10586 0.663086 2.63506C0.663086 1.16426 1.84954 0 3.30404 0C4.75854 0 5.9438 1.17117 5.9438 2.63506C5.9438 4.09895 4.75586 5.33474 3.30404 5.33474V5.33504Z" fill="#E40046"/>
<path fill-rule="evenodd" clip-rule="evenodd" d="M3.30404 12.0021C1.84954 12.0021 0.663086 10.7735 0.663086 9.30395C0.663086 7.83435 1.84954 6.66919 3.30404 6.66919C4.75854 6.66919 5.9438 7.83736 5.9438 9.30395C5.9438 10.7705 4.75586 12.0021 3.30404 12.0021Z" fill="#FFCB00"/>
<path fill-rule="evenodd" clip-rule="evenodd" d="M3.30404 18.6667C1.84954 18.6667 0.663086 17.4378 0.663086 15.97C0.663086 14.5022 1.84954 13.335 3.30404 13.335C4.75854 13.335 5.9438 14.5034 5.9438 15.97C5.9438 17.4366 4.75586 18.6667 3.30404 18.6667Z" fill="#13A438"/>
<path fill-rule="evenodd" clip-rule="evenodd" d="M3.30404 25.333C1.84954 25.333 0.663086 24.1041 0.663086 22.6375C0.663086 21.1709 1.84954 19.9998 3.30404 19.9998C4.75854 19.9998 5.9438 21.1694 5.9438 22.6375C5.9438 24.1056 4.75586 25.333 3.30404 25.333Z" fill="#009FE3"/>
<path fill-rule="evenodd" clip-rule="evenodd" d="M104.959 24.6186C103.506 24.6186 102.32 23.3898 102.32 21.9232C102.32 20.4566 103.506 19.2854 104.959 19.2854C106.413 19.2854 107.6 20.4551 107.6 21.9232C107.6 23.3913 106.411 24.6186 104.959 24.6186Z" fill="black"/>
<path fill-rule="evenodd" clip-rule="evenodd" d="M3.30404 32C1.84954 32 0.663086 30.7726 0.663086 29.3018C0.663086 27.831 1.84954 26.6655 3.30404 26.6655C4.75854 26.6655 5.9438 27.8352 5.9438 29.3018C5.9438 30.7684 4.75586 32 3.30404 32Z" fill="#A762A3"/>
</g>
<defs>
<clipPath id="clip0_69_1957">
<rect width="135" height="32" fill="white" transform="translate(0.663086)"/>
</clipPath>
</defs>
</svg>
