<svg width="134" height="98" viewBox="0 0 134 98" fill="none" xmlns="http://www.w3.org/2000/svg">
<g clip-path="url(#clip0_917_1299)">
<path d="M113.33 3H21.29C20.58 3 20 3.59 20 4.3V74.55C20 75.27 20.58 75.85 21.3 75.85H61.98V85.66H43.68C42.96 85.66 42.38 86.24 42.38 86.96V94.07C42.38 94.79 42.96 95.37 43.68 95.37H90.94C91.66 95.37 92.24 94.79 92.24 94.07V86.96C92.24 86.24 91.66 85.66 90.94 85.66H72.64V75.85H113.32C114.04 75.85 114.62 75.27 114.62 74.55V4.3C114.62 3.58 114.04 3 113.32 3H113.33ZM112.03 5.6V63.34H22.59V5.6H112.03ZM89.65 92.78H44.98V88.27H89.64V92.78H89.65ZM70.05 85.67H64.58V75.86H70.05V85.67ZM71.35 73.26H22.59V65.94H112.02V73.26H71.35ZM72.65 69.43C72.65 70.15 72.07 70.73 71.35 70.73H63.28C62.56 70.73 61.98 70.15 61.98 69.43C61.98 68.71 62.56 68.13 63.28 68.13H71.35C72.07 68.13 72.65 68.71 72.65 69.43Z" fill="#3F4547"/>
</g>
<rect x="36.15" y="18.15" width="87.7" height="33.7" rx="2.85" fill="white"/>
<rect x="36.15" y="18.15" width="87.7" height="33.7" rx="2.85" stroke="#3F4547" stroke-width="2.3"/>
<path d="M52.392 41V29.576H54.312V34.248H57.4L59.592 29.576H61.576L59.016 35.128L61.72 41H59.736L57.4 35.992H54.312V41H52.392ZM65.6071 44.2H63.7671L65.4471 40.2L61.9911 32.856H63.8951L66.1671 37.768H66.5831L68.6471 32.856H70.5031L65.6071 44.2ZM79.5016 41H77.6936V34.392H73.8216V41H72.0136V32.856H79.5016V41ZM84.046 41H81.998V32.856H83.758V38.232H84.142L87.486 32.856H89.582V41H87.822V35.624H87.438L84.046 41ZM91.3081 34.392V32.856H98.6041V34.392H95.8681V41H94.0601V34.392H91.3081ZM102.134 32.856V35.384H104.326C105.35 35.384 106.134 35.6293 106.678 36.12C107.222 36.6 107.494 37.2773 107.494 38.152C107.494 39.0373 107.217 39.736 106.662 40.248C106.118 40.7493 105.339 41 104.326 41H100.326V32.856H102.134ZM102.134 39.464H104.07C104.657 39.464 105.073 39.3573 105.318 39.144C105.563 38.92 105.686 38.5893 105.686 38.152C105.686 37.7147 105.563 37.3893 105.318 37.176C105.073 36.952 104.657 36.84 104.07 36.84H102.134V39.464Z" fill="#3CB868"/>
<defs>
<clipPath id="clip0_917_1299">
<rect width="94.62" height="92.37" fill="white" transform="translate(20 3)"/>
</clipPath>
</defs>
</svg>
