<svg width="134" height="99" viewBox="0 0 134 99" fill="none" xmlns="http://www.w3.org/2000/svg">
<path d="M82.1933 0.846462L82.1933 0.846442L82.1911 0.844383C81.9891 0.65015 81.7236 0.54043 81.4421 0.54043H19.5981C19.2679 0.54043 18.9738 0.703693 18.781 0.939266L4.47288 15.2474L0.736567 18.9837L0.736444 18.9835L0.731584 18.9889C0.458622 19.2895 0.327291 19.5447 0.353178 19.8035C0.378032 20.0521 0.546843 20.2595 0.730521 20.4662L0.730328 20.4664L0.736567 20.4726L15.03 34.766C15.2249 34.9609 15.4978 35.0787 15.7744 35.0787C16.048 35.0787 16.3223 34.9698 16.5198 34.7651C16.5202 34.7647 16.5206 34.7643 16.5209 34.7639L17.547 33.7378L18.5409 32.744V84.5625C18.5409 85.1493 19.0113 85.6197 19.5981 85.6197H81.4421C82.0215 85.6197 82.4993 85.15 82.4993 84.5625V32.7298L84.5414 34.766C84.5415 34.766 84.5415 34.7661 84.5416 34.7661C84.7361 34.9606 85.0021 35.0787 85.2859 35.0787C85.5668 35.0787 85.8342 34.9694 86.0313 34.765C86.0317 34.7646 86.032 34.7643 86.0324 34.7639L100.324 20.4726L100.324 20.4729L100.332 20.4639C100.435 20.3425 100.588 20.1318 100.637 19.8691C100.689 19.5948 100.623 19.2831 100.324 18.9837L82.1933 0.846462ZM34.7296 2.6481H45.7926H45.7993H66.3307C65.7865 10.8947 58.9107 17.4345 50.5302 17.4345C42.1497 17.4345 35.2738 10.8947 34.7296 2.6481ZM15.7745 32.5326L2.97665 19.7282L5.21737 17.4874L18.0218 30.2852L15.7745 32.5326ZM81.1807 19.6924L81.2351 19.7468C80.8074 19.8803 80.4931 20.2786 80.4924 20.7547C80.4924 20.7552 80.4924 20.7557 80.4924 20.7563L80.4923 20.7613L80.4921 20.7812L80.4912 20.8588L80.4878 21.1536L80.4756 22.2069L80.4386 25.4132C80.4118 27.7507 80.3849 30.1093 80.3849 30.1844V83.5053H20.6486V30.1978C20.6486 30.1297 20.6267 27.7663 20.6049 25.4219L20.5749 22.2056L20.565 21.1486L20.5622 20.8528L20.5615 20.7749L20.5613 20.7549L20.5612 20.7499L20.5612 20.7496C20.5612 20.7493 20.5612 20.749 20.5612 20.7488C20.5608 20.1697 20.0913 19.6924 19.504 19.6924C18.9172 19.6924 18.4468 20.1627 18.4468 20.7496V27.7389L6.70624 15.9918L20.05 2.6481H32.607C33.1526 12.0553 40.9825 19.5421 50.5302 19.5421C60.0779 19.5421 67.9011 12.0552 68.4466 2.6481H81.0036L94.3473 15.9918L82.6001 27.7391V20.7496C82.6001 20.1702 82.1304 19.6924 81.5429 19.6924H81.1807ZM98.0904 19.7349L85.2926 32.5393L83.0452 30.292L95.8497 17.4942L98.0904 19.7349Z" fill="#3F4547" stroke="#3F4547" stroke-width="0.3"/>
<rect x="41.5" y="58" width="89" height="38" fill="white"/>
<rect x="41.5" y="58" width="89" height="38" stroke="#3F4547" stroke-width="2" stroke-dasharray="6 6"/>
<path d="M73.379 71.576V73.272H69.731V83H67.811V73.272H64.147V71.576H73.379ZM80.8885 78.472V79.08H74.8725C74.9258 80.808 75.6885 81.672 77.1605 81.672C78.0885 81.672 78.6805 81.3253 78.9365 80.632H80.7765C80.6165 81.4213 80.2272 82.0507 79.6085 82.52C78.9898 82.9787 78.1685 83.208 77.1445 83.208C75.8858 83.208 74.8938 82.808 74.1685 82.008C73.4432 81.208 73.0805 80.1627 73.0805 78.872C73.0805 77.592 73.4378 76.568 74.1525 75.8C74.8778 75.032 75.8592 74.648 77.0965 74.648C78.2698 74.648 79.1872 75.0107 79.8485 75.736C80.5205 76.4507 80.8672 77.3627 80.8885 78.472ZM77.0805 76.088C75.9072 76.088 75.1978 76.6373 74.9525 77.736H79.0325C78.9685 77.256 78.7712 76.8613 78.4405 76.552C78.1098 76.2427 77.6565 76.088 77.0805 76.088ZM88.5206 83L86.7926 79.592H84.6966V83H82.8886V74.856H84.6966V78.056H86.8246L88.4566 74.856H90.3126L88.3126 78.776L90.4246 83H88.5206ZM97.3733 80.392H99.1653C99.0373 81.2453 98.6479 81.928 97.9973 82.44C97.3573 82.952 96.5519 83.208 95.5813 83.208C94.3333 83.208 93.3466 82.8133 92.6213 82.024C91.9066 81.224 91.5493 80.1893 91.5493 78.92C91.5493 77.6507 91.9066 76.6213 92.6213 75.832C93.3466 75.0427 94.3333 74.648 95.5813 74.648C96.5626 74.648 97.3626 74.8933 97.9813 75.384C98.6106 75.8747 98.9839 76.5253 99.1013 77.336H97.3093C97.0426 76.568 96.4719 76.184 95.5973 76.184C94.8399 76.184 94.2746 76.44 93.9013 76.952C93.5386 77.464 93.3573 78.1147 93.3573 78.904C93.3573 79.7147 93.5386 80.3813 93.9013 80.904C94.2746 81.416 94.8399 81.672 95.5973 81.672C96.5999 81.672 97.1919 81.2453 97.3733 80.392ZM100.355 76.392V74.856H107.651V76.392H104.915V83H103.107V76.392H100.355Z" fill="#3CB868"/>
<rect x="38.5" y="55.7617" width="6" height="6" fill="#3F4547"/>
<rect x="127.5" y="55.7617" width="6" height="6" fill="#3F4547"/>
<rect x="38.5" y="93" width="6" height="6" fill="#3F4547"/>
<rect x="127.5" y="93" width="6" height="6" fill="#3F4547"/>
</svg>
