<svg width="134" height="98" viewBox="0 0 134 98" fill="none" xmlns="http://www.w3.org/2000/svg">
<g clip-path="url(#clip0_917_1305)">
<path d="M113.33 3H21.29C20.58 3 20 3.59 20 4.3V74.55C20 75.27 20.58 75.85 21.3 75.85H61.98V85.66H43.68C42.96 85.66 42.38 86.24 42.38 86.96V94.07C42.38 94.79 42.96 95.37 43.68 95.37H90.94C91.66 95.37 92.24 94.79 92.24 94.07V86.96C92.24 86.24 91.66 85.66 90.94 85.66H72.64V75.85H113.32C114.04 75.85 114.62 75.27 114.62 74.55V4.3C114.62 3.58 114.04 3 113.32 3H113.33ZM112.03 5.6V63.34H22.59V5.6H112.03ZM89.65 92.78H44.98V88.27H89.64V92.78H89.65ZM70.05 85.67H64.58V75.86H70.05V85.67ZM71.35 73.26H22.59V65.94H112.02V73.26H71.35ZM72.65 69.43C72.65 70.15 72.07 70.73 71.35 70.73H63.28C62.56 70.73 61.98 70.15 61.98 69.43C61.98 68.71 62.56 68.13 63.28 68.13H71.35C72.07 68.13 72.65 68.71 72.65 69.43Z" fill="#3F4547"/>
</g>
<path d="M81 24.5L61.75 43.75L53 35" stroke="#3CB868" stroke-width="3.2" stroke-linecap="round" stroke-linejoin="round"/>
<defs>
<clipPath id="clip0_917_1305">
<rect width="94.62" height="92.37" fill="white" transform="translate(20 3)"/>
</clipPath>
</defs>
</svg>
