<svg width="134" height="98" viewBox="0 0 134 98" fill="none" xmlns="http://www.w3.org/2000/svg">
<path d="M98.6913 6.76638L98.6913 6.76636L98.6892 6.76431C98.4872 6.57007 98.2217 6.46035 97.9401 6.46035H36.0961C35.7659 6.46035 35.4719 6.62361 35.279 6.85919L20.9709 21.1673L17.2346 24.9036L17.2345 24.9035L17.2296 24.9088C16.9567 25.2094 16.8253 25.4646 16.8512 25.7235C16.8761 25.972 17.0449 26.1795 17.2286 26.3861L17.2284 26.3863L17.2346 26.3925L31.528 40.6859C31.723 40.8809 31.9959 40.9986 32.2725 40.9986C32.546 40.9986 32.8203 40.8897 33.0178 40.685C33.0182 40.6846 33.0186 40.6842 33.019 40.6838L34.0451 39.6577L35.0389 38.6639V90.4824C35.0389 91.0692 35.5093 91.5396 36.0961 91.5396H97.9401C98.5195 91.5396 98.9973 91.0699 98.9973 90.4824V38.6497L101.039 40.6859C101.04 40.686 101.04 40.686 101.04 40.6861C101.234 40.8805 101.5 40.9986 101.784 40.9986C102.065 40.9986 102.332 40.8893 102.529 40.6849C102.53 40.6846 102.53 40.6842 102.53 40.6838L116.822 26.3925L116.822 26.3928L116.83 26.3838C116.933 26.2624 117.086 26.0517 117.135 25.7891C117.187 25.5147 117.121 25.203 116.822 24.9036L98.6913 6.76638ZM51.2277 8.56803H62.2906H62.2973H82.8287C82.2845 16.8146 75.4087 23.3544 67.0282 23.3544C58.6477 23.3544 51.7719 16.8146 51.2277 8.56803ZM32.2725 38.4525L19.4747 25.6481L21.7154 23.4074L34.5198 36.2052L32.2725 38.4525ZM97.6787 25.6123L97.7332 25.6668C97.3055 25.8002 96.9912 26.1985 96.9904 26.6746C96.9904 26.6751 96.9904 26.6757 96.9904 26.6762L96.9904 26.6812L96.9901 26.7011L96.9892 26.7787L96.9858 27.0735L96.9736 28.1268L96.9367 31.3331C96.9098 33.6706 96.8829 36.0293 96.8829 36.1043V89.4252H37.1466V36.1178C37.1466 36.0496 37.1248 33.6862 37.1029 31.3418L37.0729 28.1255L37.063 27.0685L37.0602 26.7727L37.0595 26.6948L37.0593 26.6748L37.0593 26.6698L37.0593 26.6695C37.0593 26.6692 37.0593 26.6689 37.0593 26.6687C37.0588 26.0896 36.5894 25.6123 36.0021 25.6123C35.4152 25.6123 34.9449 26.0826 34.9449 26.6695V33.6589L23.2043 21.9118L36.548 8.56803H49.105C49.6507 17.9752 57.4806 25.462 67.0282 25.462C76.5759 25.462 84.3991 17.9752 84.9447 8.56803H97.5017L110.845 21.9117L99.0981 33.659V26.6695C99.0981 26.0901 98.6285 25.6123 98.0409 25.6123H97.6787ZM114.588 25.6548L101.791 38.4592L99.5433 36.2119L112.348 23.4141L114.588 25.6548Z" fill="#3F4547" stroke="#3F4547" stroke-width="0.3"/>
<path d="M81 41.5L61.75 60.75L53 52" stroke="#3CB868" stroke-width="3.2" stroke-linecap="round" stroke-linejoin="round"/>
</svg>
